<svg width="337" height="196" viewBox="0 0 337 196" fill="none" xmlns="http://www.w3.org/2000/svg">
<g filter="url(#filter0_ddd)">
<path d="M66 17H315V167H76C70.4772 167 66 162.523 66 157V17Z" fill="#17293F" fill-opacity="0.7"/>
<rect x="81" y="17" width="220" height="150" fill="white"/>
<rect x="81.5" y="17.5" width="219" height="149" stroke="black" stroke-opacity="0.1"/>
<g clip-path="url(#clip0)">
<path d="M22 21C22 18.7909 23.7909 17 26 17H66V44.556H26C23.7909 44.556 22 42.7651 22 40.556V21Z" fill="#17293F" fill-opacity="0.7"/>
</g>
</g>
<path fill-rule="evenodd" clip-rule="evenodd" d="M49 21H36C35.45 21 35 21.45 35 22V36L39 32H49C49.55 32 50 31.55 50 31V22C50 21.45 49.55 21 49 21ZM48 23V30H38.17L37 31.17V23H48ZM52 25H54C54.55 25 55 25.45 55 26V41L51 37H40C39.45 37 39 36.55 39 36V34H52V25Z" fill="white"/>
<line x1="81" y1="166.5" x2="301" y2="166.5" stroke="#17293F" stroke-opacity="0.7"/>
<line x1="81" y1="17.5" x2="301" y2="17.5" stroke="#17293F" stroke-opacity="0.7"/>
<defs>
<filter id="filter0_ddd" x="0" y="0" width="337" height="196" filterUnits="userSpaceOnUse" color-interpolation-filters="sRGB">
<feFlood flood-opacity="0" result="BackgroundImageFix"/>
<feColorMatrix in="SourceAlpha" type="matrix" values="0 0 0 0 0 0 0 0 0 0 0 0 0 0 0 0 0 0 127 0"/>
<feOffset dy="7"/>
<feGaussianBlur stdDeviation="4"/>
<feColorMatrix type="matrix" values="0 0 0 0 0 0 0 0 0 0 0 0 0 0 0 0 0 0 0.2 0"/>
<feBlend mode="normal" in2="BackgroundImageFix" result="effect1_dropShadow"/>
<feColorMatrix in="SourceAlpha" type="matrix" values="0 0 0 0 0 0 0 0 0 0 0 0 0 0 0 0 0 0 127 0"/>
<feOffset dy="5"/>
<feGaussianBlur stdDeviation="11"/>
<feColorMatrix type="matrix" values="0 0 0 0 0 0 0 0 0 0 0 0 0 0 0 0 0 0 0.12 0"/>
<feBlend mode="normal" in2="effect1_dropShadow" result="effect2_dropShadow"/>
<feColorMatrix in="SourceAlpha" type="matrix" values="0 0 0 0 0 0 0 0 0 0 0 0 0 0 0 0 0 0 127 0"/>
<feOffset dy="12"/>
<feGaussianBlur stdDeviation="8.5"/>
<feColorMatrix type="matrix" values="0 0 0 0 0 0 0 0 0 0 0 0 0 0 0 0 0 0 0.14 0"/>
<feBlend mode="normal" in2="effect2_dropShadow" result="effect3_dropShadow"/>
<feBlend mode="normal" in="SourceGraphic" in2="effect3_dropShadow" result="shape"/>
</filter>
<clipPath id="clip0">
<path d="M22 21C22 18.7909 23.7909 17 26 17H66V44.556H26C23.7909 44.556 22 42.7651 22 40.556V21Z" fill="white"/>
</clipPath>
</defs>
</svg>
