<svg width="64" height="36" viewBox="0 0 64 36" fill="none" xmlns="http://www.w3.org/2000/svg">
<path d="M5 0.5H63.5V35.5H5C2.51472 35.5 0.5 33.4853 0.5 31V5C0.5 2.51472 2.51472 0.5 5 0.5Z" fill="#17293F" stroke="white"/>
<path fill-rule="evenodd" clip-rule="evenodd" d="M36.5 6H20.25C19.5625 6 19 6.5625 19 7.25V24.75L24 19.75H36.5C37.1875 19.75 37.75 19.1875 37.75 18.5V7.25C37.75 6.5625 37.1875 6 36.5 6ZM35.25 8.5V17.25H22.9625L21.5 18.7125V8.5H35.25ZM40.25 11H42.75C43.4375 11 44 11.5625 44 12.25V31L39 26H25.25C24.5625 26 24 25.4375 24 24.75V22.25H40.25V11Z" fill="white"/>
<line x1="63.5" y1="1" x2="63.5" y2="35" stroke="#17293F"/>
</svg>
