<svg width="466" height="139" viewBox="0 0 466 139" fill="none" xmlns="http://www.w3.org/2000/svg">
<path d="M50.056 74.704C50.056 66.928 48.28 60.88 44.728 56.56C41.272 52.24 35.656 50.08 27.88 50.08C26.248 50.08 24.52 50.176 22.696 50.368C20.968 50.464 19.24 50.752 17.512 51.232V94.288C19.048 95.344 21.064 96.352 23.56 97.312C26.152 98.176 28.888 98.608 31.768 98.608C38.104 98.608 42.712 96.448 45.592 92.128C48.568 87.808 50.056 82 50.056 74.704ZM67.912 74.416C67.912 80.176 67.144 85.456 65.608 90.256C64.168 95.056 62.056 99.184 59.272 102.64C56.488 106.096 52.984 108.784 48.76 110.704C44.632 112.624 39.928 113.584 34.648 113.584C31.096 113.584 27.832 113.152 24.856 112.288C21.88 111.424 19.432 110.464 17.512 109.408V138.64H0.088001V39.136C3.64 38.176 8.008 37.264 13.192 36.4C18.376 35.536 23.848 35.104 29.608 35.104C35.56 35.104 40.888 36.016 45.592 37.84C50.296 39.664 54.28 42.304 57.544 45.76C60.904 49.12 63.448 53.248 65.176 58.144C67 62.944 67.912 68.368 67.912 74.416ZM112.365 99.76C117.741 99.76 121.821 99.472 124.605 98.896V79.6C123.645 79.312 122.253 79.024 120.429 78.736C118.605 78.448 116.589 78.304 114.381 78.304C112.461 78.304 110.493 78.448 108.477 78.736C106.557 79.024 104.781 79.552 103.149 80.32C101.613 81.088 100.365 82.192 99.4053 83.632C98.4453 84.976 97.9653 86.704 97.9653 88.816C97.9653 92.944 99.2613 95.824 101.853 97.456C104.445 98.992 107.949 99.76 112.365 99.76ZM110.925 34.816C116.685 34.816 121.533 35.536 125.469 36.976C129.405 38.416 132.525 40.432 134.829 43.024C137.229 45.616 138.909 48.784 139.869 52.528C140.925 56.176 141.453 60.208 141.453 64.624V110.272C138.765 110.848 134.685 111.52 129.213 112.288C123.837 113.152 117.741 113.584 110.925 113.584C106.413 113.584 102.285 113.152 98.5413 112.288C94.7973 111.424 91.5813 110.032 88.8933 108.112C86.3013 106.192 84.2373 103.696 82.7013 100.624C81.2613 97.552 80.5413 93.76 80.5413 89.248C80.5413 84.928 81.3573 81.28 82.9893 78.304C84.7173 75.328 87.0213 72.928 89.9013 71.104C92.7813 69.184 96.0933 67.84 99.8373 67.072C103.677 66.208 107.661 65.776 111.789 65.776C113.709 65.776 115.725 65.92 117.837 66.208C119.949 66.4 122.205 66.784 124.605 67.36V64.48C124.605 62.464 124.365 60.544 123.885 58.72C123.405 56.896 122.541 55.312 121.293 53.968C120.141 52.528 118.557 51.424 116.541 50.656C114.621 49.888 112.173 49.504 109.197 49.504C105.165 49.504 101.469 49.792 98.1093 50.368C94.7493 50.944 92.0133 51.616 89.9013 52.384L87.7413 38.272C89.9493 37.504 93.1653 36.736 97.3893 35.968C101.613 35.2 106.125 34.816 110.925 34.816ZM180.259 112C175.459 102.112 170.515 90.784 165.427 78.016C160.435 65.152 155.875 51.376 151.747 36.688H170.323C171.379 40.912 172.579 45.472 173.923 50.368C175.363 55.168 176.851 60.016 178.387 64.912C180.019 69.712 181.651 74.416 183.283 79.024C185.011 83.536 186.595 87.616 188.035 91.264C189.475 87.616 191.011 83.536 192.643 79.024C194.275 74.416 195.859 69.712 197.395 64.912C199.027 60.016 200.563 55.168 202.003 50.368C203.443 45.472 204.691 40.912 205.747 36.688H223.747C219.619 51.376 215.011 65.152 209.923 78.016C204.931 90.784 200.035 102.112 195.235 112H180.259ZM248.752 74.128C248.752 81.808 250.576 87.856 254.224 92.272C257.872 96.592 262.912 98.752 269.344 98.752C272.128 98.752 274.48 98.656 276.4 98.464C278.416 98.176 280.048 97.888 281.296 97.6V54.4C279.76 53.344 277.696 52.384 275.104 51.52C272.608 50.56 269.92 50.08 267.04 50.08C260.704 50.08 256.048 52.24 253.072 56.56C250.192 60.88 248.752 66.736 248.752 74.128ZM298.72 109.696C295.264 110.752 290.896 111.712 285.616 112.576C280.432 113.44 274.96 113.872 269.2 113.872C263.248 113.872 257.92 112.96 253.216 111.136C248.512 109.312 244.48 106.72 241.12 103.36C237.856 99.904 235.312 95.776 233.488 90.976C231.76 86.08 230.896 80.608 230.896 74.56C230.896 68.608 231.616 63.232 233.056 58.432C234.592 53.536 236.8 49.36 239.68 45.904C242.56 42.448 246.064 39.808 250.192 37.984C254.32 36.064 259.072 35.104 264.448 35.104C268.096 35.104 271.312 35.536 274.096 36.4C276.88 37.264 279.28 38.224 281.296 39.28V3.13599L298.72 0.255997V109.696ZM316.678 74.704C316.678 68.08 317.638 62.272 319.558 57.28C321.574 52.288 324.214 48.16 327.478 44.896C330.742 41.536 334.486 39.04 338.71 37.408C342.934 35.68 347.254 34.816 351.67 34.816C362.038 34.816 370.102 38.032 375.862 44.464C381.718 50.896 384.646 60.496 384.646 73.264C384.646 74.224 384.598 75.328 384.502 76.576C384.502 77.728 384.454 78.784 384.358 79.744H334.678C335.158 85.792 337.27 90.496 341.014 93.856C344.854 97.12 350.374 98.752 357.574 98.752C361.798 98.752 365.638 98.368 369.094 97.6C372.646 96.832 375.43 96.016 377.446 95.152L379.75 109.408C378.79 109.888 377.446 110.416 375.718 110.992C374.086 111.472 372.166 111.904 369.958 112.288C367.846 112.768 365.542 113.152 363.046 113.44C360.55 113.728 358.006 113.872 355.414 113.872C348.79 113.872 343.03 112.912 338.134 110.992C333.238 108.976 329.206 106.24 326.038 102.784C322.87 99.232 320.518 95.104 318.982 90.4C317.446 85.6 316.678 80.368 316.678 74.704ZM367.222 66.928C367.222 64.528 366.886 62.272 366.214 60.16C365.542 57.952 364.534 56.08 363.19 54.544C361.942 52.912 360.358 51.664 358.438 50.8C356.614 49.84 354.406 49.36 351.814 49.36C349.126 49.36 346.774 49.888 344.758 50.944C342.742 51.904 341.014 53.2 339.574 54.832C338.23 56.464 337.174 58.336 336.406 60.448C335.638 62.56 335.11 64.72 334.822 66.928H367.222ZM422.415 112C417.615 102.112 412.671 90.784 407.583 78.016C402.591 65.152 398.031 51.376 393.903 36.688H412.479C413.535 40.912 414.735 45.472 416.079 50.368C417.519 55.168 419.007 60.016 420.543 64.912C422.175 69.712 423.807 74.416 425.439 79.024C427.167 83.536 428.751 87.616 430.191 91.264C431.631 87.616 433.167 83.536 434.799 79.024C436.431 74.416 438.015 69.712 439.551 64.912C441.183 60.016 442.719 55.168 444.159 50.368C445.599 45.472 446.847 40.912 447.903 36.688H465.903C461.775 51.376 457.167 65.152 452.079 78.016C447.087 90.784 442.191 102.112 437.391 112H422.415Z" fill="#1598C3"/>
</svg>
