<svg width="245" height="64" viewBox="0 0 245 64" fill="none" xmlns="http://www.w3.org/2000/svg">
<path d="M1.44 63.848V26.92C1.44 26.1093 1.41867 25.064 1.376 23.784C1.33333 22.4613 1.26933 21.16 1.184 19.88C1.14133 18.6 1.01333 17.576 0.8 16.808L0.992 16.296C3.21067 15.3573 5.55733 14.6107 8.032 14.056C10.5067 13.5013 13.024 13.224 15.584 13.224C18.1867 13.224 20.5973 13.5867 22.816 14.312C25.0773 14.9947 27.0613 16.0827 28.768 17.576C30.4747 19.0693 31.7973 20.968 32.736 23.272C33.7173 25.5333 34.208 28.2427 34.208 31.4C34.208 34.0027 33.824 36.4347 33.056 38.696C32.288 40.9147 31.136 42.856 29.6 44.52C28.064 46.184 26.1227 47.4853 23.776 48.424C21.472 49.32 18.7627 49.768 15.648 49.768C14.4107 49.768 13.1733 49.6613 11.936 49.448C10.6987 49.2347 9.76 49.064 9.12 48.936L9.632 42.024C10.1013 42.2373 10.7413 42.4507 11.552 42.664C12.3627 42.8347 13.4293 42.92 14.752 42.92C18.336 42.92 20.9387 41.896 22.56 39.848C24.224 37.8 25.056 34.984 25.056 31.4C25.056 27.8587 24.224 25.1067 22.56 23.144C20.896 21.1813 18.4 20.2 15.072 20.2C13.7493 20.2 12.4907 20.3707 11.296 20.712C10.1013 21.0107 9.248 21.352 8.736 21.736L9.568 19.432C9.90933 20.072 10.1227 20.8827 10.208 21.864C10.336 22.8027 10.4 23.912 10.4 25.192V63.848H1.44ZM56.3845 49.768C51.0512 49.768 47.0192 48.8933 44.2885 47.144C41.6005 45.3947 40.2565 42.5573 40.2565 38.632C40.2565 36.1147 40.8752 34.0453 42.1125 32.424C43.3925 30.8027 45.1632 29.608 47.4245 28.84C49.7285 28.0293 52.3738 27.624 55.3605 27.624C57.1952 27.624 58.7952 27.7733 60.1605 28.072C61.5258 28.328 62.7632 28.6053 63.8725 28.904V34.664C63.0192 34.3653 61.9312 34.1093 60.6085 33.896C59.2858 33.64 58.0058 33.512 56.7685 33.512C53.9952 33.512 51.9258 33.896 50.5605 34.664C49.2378 35.432 48.5765 36.7333 48.5765 38.568C48.5765 40.3173 49.2378 41.576 50.5605 42.344C51.8832 43.112 53.7818 43.496 56.2565 43.496C57.7498 43.496 59.1792 43.368 60.5445 43.112C61.9525 42.8133 63.1898 42.3653 64.2565 41.768L62.9765 44.264C62.8058 43.752 62.6565 43.24 62.5285 42.728C62.4005 42.216 62.2938 41.6827 62.2085 41.128C62.1658 40.5733 62.1232 39.9547 62.0805 39.272C62.0805 38.5467 62.0805 37.672 62.0805 36.648V27.88C62.0805 25.704 61.7392 24.0613 61.0565 22.952C60.3738 21.8427 59.3712 21.1173 58.0485 20.776C56.7258 20.392 55.0832 20.2 53.1205 20.2C51.3285 20.2 49.6005 20.392 47.9365 20.776C46.2725 21.1173 44.9285 21.5227 43.9045 21.992H43.2645V14.888C44.8005 14.3333 46.5285 13.928 48.4485 13.672C50.3685 13.3733 52.2885 13.224 54.2085 13.224C56.5978 13.224 58.7952 13.4373 60.8005 13.864C62.8485 14.2907 64.6192 15.0373 66.1125 16.104C67.6058 17.1707 68.7578 18.6853 69.5685 20.648C70.4218 22.568 70.8485 25.064 70.8485 28.136V36.2C70.8485 37.096 70.8485 38.2267 70.8485 39.592C70.8912 40.9147 70.9552 42.216 71.0405 43.496C71.1258 44.776 71.2538 45.8 71.4245 46.568L71.2325 47.08C69.7818 47.6347 68.2032 48.1253 66.4965 48.552C64.8325 48.936 63.1258 49.2347 61.3765 49.448C59.6272 49.6613 57.9632 49.768 56.3845 49.768ZM85.2385 49L75.6385 14.824V14.056H84.9825L92.0225 43.56L90.1665 43.496L99.0625 14.056H105.271L114.103 43.688L112.183 43.752L119.479 14.056H128.823V14.824L118.711 49H108.471L100.919 24.04H103.031L95.3505 49H85.2385ZM150.894 49.768C146.926 49.768 143.513 49.1067 140.654 47.784C137.795 46.4187 135.598 44.392 134.062 41.704C132.526 38.9733 131.758 35.5387 131.758 31.4C131.758 27.6453 132.526 24.424 134.062 21.736C135.598 19.0053 137.753 16.9147 140.526 15.464C143.299 14.0133 146.563 13.2667 150.318 13.224C151.854 13.224 153.198 13.352 154.35 13.608C155.545 13.8213 156.419 14.056 156.974 14.312L156.846 21.16C156.291 20.9467 155.587 20.7333 154.734 20.52C153.881 20.3067 152.814 20.2 151.534 20.2C147.993 20.2 145.326 21.1813 143.534 23.144C141.785 25.1067 140.91 27.8587 140.91 31.4C140.91 33.832 141.273 35.9013 141.998 37.608C142.766 39.3147 143.918 40.616 145.454 41.512C146.99 42.3653 148.953 42.792 151.342 42.792C152.622 42.792 153.731 42.6853 154.67 42.472C155.651 42.2587 156.505 42.0027 157.23 41.704L156.398 44.072C156.057 43.3467 155.843 42.472 155.758 41.448C155.673 40.424 155.63 39.3147 155.63 38.12V11.88C155.63 10.856 155.609 9.61867 155.566 8.168C155.523 6.71733 155.459 5.30933 155.374 3.944C155.289 2.57866 155.161 1.55466 154.99 0.871998L155.182 0.359997H164.59V36.392C164.59 37.2453 164.59 38.3547 164.59 39.72C164.633 41.0427 164.675 42.344 164.718 43.624C164.803 44.904 164.931 45.928 165.102 46.696L164.91 47.208C163.118 47.9333 161.049 48.5307 158.702 49C156.398 49.512 153.795 49.768 150.894 49.768ZM193.11 49.64C189.91 49.64 187.051 49.2773 184.534 48.552C182.017 47.8267 179.883 46.7387 178.134 45.288C176.385 43.7947 175.041 41.896 174.102 39.592C173.206 37.288 172.758 34.5573 172.758 31.4C172.758 27.6453 173.462 24.424 174.87 21.736C176.278 19.0053 178.262 16.9147 180.822 15.464C183.425 13.9707 186.454 13.224 189.91 13.224C193.793 13.224 196.95 14.0347 199.382 15.656C201.814 17.2347 203.563 19.4533 204.63 22.312C205.697 25.128 206.145 28.3707 205.974 32.04L205.91 34.152H178.518V28.264H197.206V27.88C197.206 25.2773 196.587 23.2933 195.35 21.928C194.155 20.5627 192.321 19.88 189.846 19.88C188.31 19.88 186.923 20.2213 185.686 20.904C184.491 21.544 183.531 22.6533 182.806 24.232C182.123 25.8107 181.782 27.9653 181.782 30.696V32.04C181.782 34.728 182.294 36.84 183.318 38.376C184.342 39.8693 185.75 40.936 187.542 41.576C189.334 42.216 191.403 42.536 193.75 42.536C195.841 42.536 197.675 42.344 199.254 41.96C200.833 41.576 202.07 41.128 202.966 40.616H203.606V47.848C202.411 48.36 200.939 48.7867 199.19 49.128C197.483 49.4693 195.457 49.64 193.11 49.64ZM221.044 49L209.076 14.824V14.056H218.612L228.02 44.584H225.972L235.636 14.056H244.916V14.824L232.436 49H221.044Z" fill="white"/>
</svg>
